<svg>

<symbol id='logo' viewBox="0 0 46 43" fill="none" xmlns="http://www.w3.org/2000/svg">
<rect x="3.67383" y="4.97852" width="42.2674" height="37.3367" rx="6.96951" fill="#6C5FBC"/>
<rect x="1.0075" y="1.0075" width="40.2524" height="35.3217" rx="5.96201" fill="#DBD9EE" stroke="#6C5FBC" stroke-width="2.01499"/>
<path d="M32.624 12.0518L9.72243 11.9505" stroke="#6C5FBC" stroke-width="2.08432" stroke-linecap="round" stroke-linejoin="round"/>
<path d="M32.6096 16.6368L27.5162 16.6142C25.4095 16.6049 23.7056 14.5428 23.7133 12.0119C23.7211 9.48095 25.4376 7.43398 27.5443 7.4433L32.6377 7.46582" stroke="#6C5FBC" stroke-width="2.08432" stroke-linecap="round" stroke-linejoin="round"/>
<path d="M17.3611 26.7221L10.7067 26.648C10.1614 26.6456 9.70458 26.1076 9.6942 25.4525L9.64992 23.7254C9.63962 23.0405 10.0999 22.462 10.6699 22.4645L17.25 22.5383L17.3611 26.7221Z" stroke="#6C5FBC" stroke-width="2.08432" stroke-linecap="round" stroke-linejoin="round"/>
<path d="M27.8134 29.2108L18.4076 29.0948C17.8624 29.0924 17.4055 28.5544 17.3951 27.8993L17.2752 22.5242L32.555 22.7108L32.5653 23.3957C32.6421 26.6417 30.5025 29.2525 27.8134 29.2108Z" stroke="#6C5FBC" stroke-width="2.08432" stroke-linecap="round" stroke-linejoin="round"/>
</symbol>

<symbol id="inst" viewBox="0 0 22 22" stroke="none" xmlns="http://www.w3.org/2000/svg">
<path fill-rule="evenodd" clip-rule="evenodd" d="M10.7721 0C12.1916 0.0506994 13.6618 0.0506994 15.0812 0.101392C16.3486 0.152085 17.5146 0.354867 18.6299 1.0139C20.0494 1.87572 20.9112 3.14309 21.2154 4.76533C21.3674 5.72853 21.4181 6.74243 21.4688 7.70564C21.5195 9.83483 21.4688 11.964 21.4688 14.0932C21.4688 15.2085 21.4181 16.3238 21.0633 17.3884C20.3535 19.4669 18.8834 20.7342 16.7542 21.1398C15.791 21.3426 14.7771 21.3426 13.8139 21.3933C11.6846 21.444 9.60615 21.3933 7.47694 21.3933C6.36165 21.3933 5.24635 21.3426 4.18176 20.9877C2.10325 20.278 0.835867 18.8078 0.430303 16.6786C0.227525 15.7154 0.227525 14.7015 0.176829 13.7383C0.126131 11.6091 0.176829 9.47996 0.176829 7.35077C0.176829 6.23549 0.227525 5.1202 0.582391 4.05559C1.29213 1.9771 2.76229 0.709734 4.89148 0.304173C5.8547 0.101399 6.8686 0.101399 7.83181 0.0506994C8.79502 0 9.75823 0 10.7721 0ZM19.5426 10.4939C19.4919 10.4939 19.5426 10.4939 19.5426 10.4939C19.4919 9.6321 19.4919 8.82097 19.4919 7.95916C19.4919 7.14805 19.4412 6.33692 19.3398 5.52581C19.137 3.70078 18.0724 2.4841 16.2981 2.12924C15.3855 1.92646 14.3716 1.92646 13.4591 1.92646C11.6341 1.87577 9.85976 1.87577 8.03473 1.92646C7.12222 1.92646 6.2097 1.97715 5.34788 2.12924C3.82702 2.38271 2.76243 3.24453 2.30617 4.76538C2.15408 5.27233 2.10339 5.77928 2.05269 6.28623C2.002 8.21264 2.002 10.139 2.002 12.0655C2.002 13.2821 2.05269 14.5495 2.15408 15.7662C2.30617 17.5912 3.42146 18.8586 5.2465 19.1627C6.159 19.3148 7.12222 19.3655 8.08543 19.3655C9.85976 19.4162 11.6341 19.3655 13.4591 19.3655C14.2703 19.3655 15.0814 19.3148 15.8925 19.2134C16.6529 19.1627 17.3627 18.9093 17.971 18.4023C18.9849 17.5912 19.3398 16.5266 19.3905 15.3099C19.4919 13.7891 19.4919 12.1668 19.5426 10.4939Z" />
<path fill-rule="evenodd" clip-rule="evenodd" d="M16.2471 10.6962C16.2471 13.7379 13.8137 16.1712 10.772 16.1712C7.73025 16.1712 5.29688 13.7379 5.29688 10.6455C5.29688 7.65453 7.78094 5.22119 10.8227 5.22119C13.8137 5.22119 16.2471 7.65453 16.2471 10.6962ZM10.7719 14.2448C12.6983 14.2448 14.3205 12.6226 14.3205 10.6962C14.3205 8.76976 12.6983 7.14752 10.7719 7.14752C8.79474 7.14752 7.22318 8.76976 7.22318 10.6962C7.17248 12.6226 8.79474 14.2448 10.7719 14.2448Z" />
<path d="M17.7184 4.96758C17.7184 5.67731 17.1607 6.28566 16.451 6.28566C15.7413 6.28566 15.1329 5.67731 15.1836 4.96758C15.1836 4.25785 15.7413 3.7002 16.451 3.7002C17.1607 3.7002 17.7184 4.25784 17.7184 4.96758Z" />
</symbol>

<symbol id="linkedin" viewBox="0 0 22 21" stroke="none" xmlns="http://www.w3.org/2000/svg">
<path fill-rule="evenodd" clip-rule="evenodd" d="M21.6325 12.4811V20.3602H17.0315V12.9987C17.0315 11.1583 16.3989 9.89304 14.731 9.89304C13.4658 9.89304 12.7181 10.7557 12.373 11.5609C12.258 11.8484 12.2005 12.251 12.2005 12.6536V20.3602H7.59952C7.59952 20.3602 7.65703 7.88013 7.59952 6.61487H12.2005V8.57027C12.2005 8.57027 12.2005 8.62777 12.143 8.62777H12.2005V8.57027C12.8331 7.65008 13.8684 6.26979 16.3414 6.26979C19.332 6.26979 21.6325 8.28271 21.6325 12.4811ZM2.88298 0.000976562C1.33014 0.000976562 0.294922 1.03619 0.294922 2.35897C0.294922 3.68174 1.27263 4.71697 2.82546 4.71697H2.88298C4.49333 4.71697 5.47103 3.68175 5.47103 2.35897C5.41352 1.03619 4.43581 0.000976562 2.88298 0.000976562ZM0.525568 20.3602H5.06905V6.61489H0.525568V20.3602Z" />
</symbol>

<symbol id="facebook" viewBox="0 0 11 22" stroke="none" xmlns="http://www.w3.org/2000/svg">
<path fill-rule="evenodd" clip-rule="evenodd" d="M9.95256 10.6695H6.97166V21.338H2.52644V12.415V10.6695H0.43457V6.90414H2.52644V4.4462C2.52644 2.72041 3.36319 0.000976562 6.97166 0.000976562H10.2663V3.66174H7.913C7.54692 3.66174 6.97166 3.87094 6.97166 4.70768V6.90414H10.3186L9.95256 10.6695Z" />
</symbol>

<symbol id="twitter" viewBox="0 0 22 19" stroke="none" xmlns="http://www.w3.org/2000/svg">
<path fill-rule="evenodd" clip-rule="evenodd" d="M21.6154 2.82596C20.8121 3.1774 20.0088 3.42842 19.1052 3.52883C20.0088 2.97658 20.7117 2.1231 21.0129 1.11901C20.1595 1.62106 19.2056 1.97249 18.2517 2.1733C17.4484 1.31982 16.2937 0.767578 15.0386 0.767578C12.6287 0.767578 10.6707 2.72555 10.6707 5.13537C10.6707 5.48681 10.7209 5.83823 10.7711 6.13947C7.10619 5.93865 3.89307 4.23169 1.73426 1.57085C1.33262 2.22351 1.1318 2.97658 1.1318 3.77985C1.1318 5.28599 1.88488 6.64151 3.08979 7.44478C2.38692 7.44478 1.68406 7.24397 1.0816 6.89253V6.94273C1.0816 9.05133 2.58774 10.8587 4.59594 11.2603C4.2445 11.3607 3.84287 11.4109 3.44122 11.4109C3.14 11.4109 2.88897 11.3607 2.63795 11.3105C3.1902 13.0677 4.79676 14.3228 6.75475 14.373C5.2486 15.5277 3.39102 16.2306 1.33262 16.2306C0.981189 16.2306 0.629757 16.2306 0.27832 16.1804C2.23631 17.4355 4.49553 18.1383 7.00577 18.1383C15.0888 18.1383 19.4566 11.4611 19.4566 5.68762C19.4566 5.48681 19.4566 5.28599 19.4566 5.13537C20.3101 4.48272 21.0631 3.67944 21.6154 2.82596Z" />
</symbol>

<symbol id="arrow" viewBox="0 0 28 28" stroke="none" fill="none" xmlns="http://www.w3.org/2000/svg">
<path d="M6.55469 13.5469H22.3588" stroke="white" stroke-width="2.25773" stroke-linecap="round" stroke-linejoin="round"/>
<path d="M14.4561 5.64453L22.3581 13.5466L14.4561 21.4487" stroke="white" stroke-width="2.25773" stroke-linecap="round" stroke-linejoin="round"/>
</symbol>

<symbol id="arrow_grey" viewBox="0 0 19 19" fill="none" xmlns="http://www.w3.org/2000/svg">
  <path d="M2 9.90234H17.8041" stroke="#ACADB9" stroke-width="2.25773" stroke-linecap="round" stroke-linejoin="round" />
  <path d="M9.90234 2L17.8044 9.90206L9.90234 17.8041" stroke="#ACADB9" stroke-width="2.25773" stroke-linecap="round" stroke-linejoin="round" />
</symbol>

<symbol id="star" viewBox="0 0 18 19" fill="none" xmlns="http://www.w3.org/2000/svg">
  <path d="M11.9993 17.688C13.7033 18.6207 15.2019 17.4903 14.876 15.512L14.2909 11.9599L16.7696 9.44431C18.1482 8.04526 17.5786 6.21206 15.6708 5.92343L12.2453 5.40519L10.7209 2.1894C9.86699 0.388064 8.01299 0.36869 7.1575 2.17341L5.62555 5.40519L2.19999 5.92343C0.294844 6.21165 -0.279337 8.04328 1.10119 9.44431L3.57994 11.9599L2.99479 15.512C2.66935 17.4875 4.16507 18.622 5.87149 17.688L8.9354 16.0109L11.9993 17.688Z" fill="#6C5FBC" />
</symbol>

<symbol id="expense" viewBox="0 0 51 51" stroke="none" fill="none" xmlns="http://www.w3.org/2000/svg">
<rect x="0.532227" y="0.358887" width="50.2588" height="50.2588" rx="25.1294" fill="#F4F0FF"/>
<path d="M26.3524 14.7749L26.321 14.8482L23.2845 21.8949H20.3004C19.5884 21.8949 18.9078 22.0415 18.29 22.3033L20.1224 17.9266L20.1643 17.8219L20.2376 17.6544C20.2585 17.5915 20.2795 17.5287 20.3109 17.4764C21.6825 14.3038 23.2322 13.5813 26.3524 14.7749Z" stroke="#936DFF" stroke-width="1.57059" stroke-linecap="round" stroke-linejoin="round"/>
<path d="M31.9957 22.1043C31.5245 21.9577 31.0219 21.8949 30.5194 21.8949H23.2842L26.3206 14.8482L26.3521 14.7749C26.5091 14.8273 26.6557 14.9005 26.8128 14.9634L29.1268 15.9371C30.4147 16.4711 31.3151 17.0261 31.8596 17.6962C31.9643 17.8218 32.0481 17.937 32.1214 18.0731C32.2156 18.2197 32.2889 18.3663 32.3308 18.5234C32.3727 18.6176 32.4041 18.7118 32.425 18.7956C32.7077 19.6751 32.5402 20.7536 31.9957 22.1043Z" stroke="#936DFF" stroke-width="1.57059" stroke-linecap="round" stroke-linejoin="round"/>
<path d="M35.6303 27.0052V29.0469C35.6303 29.2563 35.6198 29.4657 35.6093 29.6752C35.4104 33.3294 33.3686 35.1722 29.4945 35.1722H21.3274C21.0761 35.1722 20.8249 35.1513 20.584 35.1199C17.2544 34.9 15.4744 33.12 15.2545 29.7903C15.2231 29.5495 15.2021 29.2982 15.2021 29.0469V27.0052C15.2021 24.9006 16.4796 23.0892 18.3014 22.3039C18.9297 22.0421 19.5998 21.8955 20.3118 21.8955H30.5311C31.0441 21.8955 31.5467 21.9688 32.0074 22.1049C34.0911 22.7436 35.6303 24.6912 35.6303 27.0052Z" stroke="#936DFF" stroke-width="1.57059" stroke-linecap="round" stroke-linejoin="round"/>
<path d="M20.1221 17.9268L18.2897 22.3035C16.4678 23.0888 15.1904 24.9002 15.1904 27.0048V23.9369C15.1904 20.9632 17.3055 18.4817 20.1221 17.9268Z" stroke="#936DFF" stroke-width="1.57059" stroke-linecap="round" stroke-linejoin="round"/>
<path d="M35.6277 23.9358V27.0036C35.6277 24.7001 34.099 22.7421 32.0049 22.1139C32.5494 20.7527 32.7064 19.6847 32.4446 18.7947C32.4237 18.7005 32.3923 18.6062 32.3504 18.5225C34.2979 19.5276 35.6277 21.5903 35.6277 23.9358Z" stroke="#936DFF" stroke-width="1.57059" stroke-linecap="round" stroke-linejoin="round"/>
</symbol>

<symbol id="vocher" viewBox="0 0 51 51" stroke="none" fill="none" xmlns="http://www.w3.org/2000/svg">
<rect x="0.532227" y="0.41748" width="50.2588" height="50.2588" rx="25.1294" fill="#F2FDF6"/>
<path d="M30.8963 35.2331H20.4257C17.2845 35.2331 15.1904 33.6625 15.1904 29.9978V22.6684C15.1904 19.0037 17.2845 17.4331 20.4257 17.4331H30.8963C34.0375 17.4331 36.1316 19.0037 36.1316 22.6684V29.9978C36.1316 33.6625 34.0375 35.2331 30.8963 35.2331Z" stroke="#22C55E" stroke-width="1.57059" stroke-miterlimit="10" stroke-linecap="round" stroke-linejoin="round"/>
<path d="M25.6617 29.4738C27.3965 29.4738 28.8029 28.0674 28.8029 26.3326C28.8029 24.5978 27.3965 23.1914 25.6617 23.1914C23.9269 23.1914 22.5205 24.5978 22.5205 26.3326C22.5205 28.0674 23.9269 29.4738 25.6617 29.4738Z" stroke="#22C55E" stroke-width="1.57059" stroke-miterlimit="10" stroke-linecap="round" stroke-linejoin="round"/>
<path d="M18.8564 23.7153V28.9506" stroke="#22C55E" stroke-width="1.57059" stroke-miterlimit="10" stroke-linecap="round" stroke-linejoin="round"/>
<path d="M32.4668 23.7153V28.9506" stroke="#22C55E" stroke-width="1.57059" stroke-miterlimit="10" stroke-linecap="round" stroke-linejoin="round"/>
</symbol>

<symbol id="raiting" viewBox="0 0 138 23" fill="none" xmlns="http://www.w3.org/2000/svg">
  <path fill-rule="evenodd" clip-rule="evenodd" d="M11.9508 0.294884L15.2326 7.26932L22.5688 8.38799C22.7587 8.41751 22.9162 8.55695 22.9754 8.7479C23.0345 8.93886 22.9851 9.14837 22.8478 9.28867L17.5403 14.7163L18.7934 22.3818C18.8264 22.5795 18.749 22.7796 18.5938 22.8977C18.4386 23.0158 18.2327 23.0315 18.0629 22.938L11.5007 19.3196L4.93864 22.9391C4.76888 23.0328 4.56286 23.0174 4.40761 22.8994C4.25235 22.7813 4.17494 22.5811 4.20807 22.3834L5.46118 14.7163L0.152187 9.28867C0.0148778 9.14837 -0.0345498 8.93886 0.0246073 8.7479C0.0837645 8.55695 0.241294 8.41751 0.431213 8.38799L7.7674 7.26932L11.0507 0.294884C11.1343 0.114543 11.3091 0 11.5007 0C11.6924 0 11.8672 0.114543 11.9508 0.294884Z" fill="#F59E0B" />
  <path fill-rule="evenodd" clip-rule="evenodd" d="M40.7008 0.294884L43.9826 7.26932L51.3188 8.38799C51.5087 8.41751 51.6662 8.55695 51.7254 8.7479C51.7845 8.93886 51.7351 9.14837 51.5978 9.28867L46.2903 14.7163L47.5434 22.3818C47.5764 22.5795 47.499 22.7796 47.3438 22.8977C47.1886 23.0158 46.9827 23.0315 46.8129 22.938L40.2507 19.3196L33.6886 22.9391C33.5189 23.0328 33.3129 23.0174 33.1576 22.8994C33.0024 22.7813 32.9249 22.5811 32.9581 22.3834L34.2112 14.7163L28.9022 9.28867C28.7649 9.14837 28.7155 8.93886 28.7746 8.7479C28.8338 8.55695 28.9913 8.41751 29.1812 8.38799L36.5174 7.26932L39.8007 0.294884C39.8843 0.114543 40.0591 0 40.2507 0C40.4424 0 40.6172 0.114543 40.7008 0.294884Z" fill="#F59E0B" />
  <path fill-rule="evenodd" clip-rule="evenodd" d="M69.4508 0.294884L72.7326 7.26932L80.0688 8.38799C80.2587 8.41751 80.4162 8.55695 80.4754 8.7479C80.5345 8.93886 80.4851 9.14837 80.3478 9.28867L75.0403 14.7163L76.2934 22.3818C76.3264 22.5795 76.249 22.7796 76.0938 22.8977C75.9386 23.0158 75.7327 23.0315 75.5629 22.938L69.0007 19.3196L62.4386 22.9391C62.2689 23.0328 62.0629 23.0174 61.9076 22.8994C61.7524 22.7813 61.6749 22.5811 61.7081 22.3834L62.9612 14.7163L57.6522 9.28867C57.5149 9.14837 57.4655 8.93886 57.5246 8.7479C57.5838 8.55695 57.7413 8.41751 57.9312 8.38799L65.2674 7.26932L68.5507 0.294884C68.6343 0.114543 68.8091 0 69.0007 0C69.1924 0 69.3672 0.114543 69.4508 0.294884Z" fill="#F59E0B" />
  <path fill-rule="evenodd" clip-rule="evenodd" d="M98.2008 0.294884L101.483 7.26932L108.819 8.38799C109.009 8.41751 109.166 8.55695 109.225 8.7479C109.285 8.93886 109.235 9.14837 109.098 9.28867L103.79 14.7163L105.043 22.3818C105.076 22.5795 104.999 22.7796 104.844 22.8977C104.689 23.0158 104.483 23.0315 104.313 22.938L97.7507 19.3196L91.1886 22.9391C91.0189 23.0328 90.8129 23.0174 90.6576 22.8994C90.5024 22.7813 90.4249 22.5811 90.4581 22.3834L91.7112 14.7163L86.4022 9.28867C86.2649 9.14837 86.2155 8.93886 86.2746 8.7479C86.3338 8.55695 86.4913 8.41751 86.6812 8.38799L94.0174 7.26932L97.3007 0.294884C97.3843 0.114543 97.5591 0 97.7507 0C97.9424 0 98.1172 0.114543 98.2008 0.294884Z" fill="#F59E0B" />
  <path fill-rule="evenodd" clip-rule="evenodd" d="M126.951 0.294884L130.233 7.26932L137.569 8.38799C137.759 8.41751 137.916 8.55695 137.975 8.7479C138.035 8.93886 137.985 9.14837 137.848 9.28867L132.54 14.7163L133.793 22.3818C133.826 22.5795 133.749 22.7796 133.594 22.8977C133.439 23.0158 133.233 23.0315 133.063 22.938L126.501 19.3196L119.939 22.9391C119.769 23.0328 119.563 23.0174 119.408 22.8994C119.252 22.7813 119.175 22.5811 119.208 22.3834L120.461 14.7163L115.152 9.28867C115.015 9.14837 114.965 8.93886 115.025 8.7479C115.084 8.55695 115.241 8.41751 115.431 8.38799L122.767 7.26932L126.051 0.294884C126.134 0.114543 126.309 0 126.501 0C126.692 0 126.867 0.114543 126.951 0.294884Z" fill="#F59E0B" />
</symbol>

<symbol id='quote' viewBox="0 0 59 45" fill="none" xmlns="http://www.w3.org/2000/svg">
  <path fill-rule="evenodd" clip-rule="evenodd" d="M36.797 44.2511C33.6916 38.2474 32.139 31.7262 32.139 24.6874C32.139 17.5452 34.0281 11.645 37.8062 6.98701C41.5844 2.32901 47.4586 0 55.429 0V9.78182C52.6342 9.78182 50.5898 10.4029 49.2959 11.645C48.002 12.8872 47.3551 15.2679 47.3551 18.7873V20.34H58.6896V44.2511H36.797ZM4.65799 44.2513C1.55267 38.2477 0 31.7264 0 24.6877C0 17.5454 1.88908 11.6452 5.66723 6.98723C9.44538 2.32923 15.3196 0.000219731 23.29 0.000219731V9.78204C20.4952 9.78204 18.4508 10.4031 17.157 11.6452C15.8631 12.8874 15.2161 15.2681 15.2161 18.7875V20.3402H26.5506V44.2513H4.65799Z" fill="#DADADA" />
</symbol>

</svg>
