<svg width="62" height="57" viewBox="0 0 62 57" fill="none" xmlns="http://www.w3.org/2000/svg">
<rect x="4.94873" y="6.70623" width="56.9356" height="50.2938" rx="9.38817" fill="#6C5FBC"/>
<rect x="1.35713" y="1.35713" width="54.2213" height="47.5795" rx="8.03104" fill="#DBD9EE" stroke="#6C5FBC" stroke-width="2.71427"/>
<path d="M43.9459 16.2342L13.0967 16.0978" stroke="#6C5FBC" stroke-width="2.80765" stroke-linecap="round" stroke-linejoin="round"/>
<path d="M43.9302 22.4108L37.0672 22.3773C34.2286 22.3634 31.9319 19.5858 31.9413 16.178C31.9507 12.7701 34.2627 10.0149 37.1014 10.0288L43.9644 10.0623" stroke="#6C5FBC" stroke-width="2.80765" stroke-linecap="round" stroke-linejoin="round"/>
<path d="M23.3879 35.9957L14.4229 35.8919C13.6884 35.8883 13.0726 35.1639 13.0584 34.2821L12.998 31.9573C12.9839 31.0354 13.6038 30.2569 14.3717 30.2606L23.2366 30.364L23.3879 35.9957Z" stroke="#6C5FBC" stroke-width="2.80765" stroke-linecap="round" stroke-linejoin="round"/>
<path d="M37.4679 39.3455L24.7964 39.1836C24.0618 39.18 23.4461 38.4558 23.4318 37.5741L23.2682 30.3404L43.8531 30.6009L43.8672 31.5227C43.972 35.891 41.0907 39.4033 37.4679 39.3455Z" stroke="#6C5FBC" stroke-width="2.80765" stroke-linecap="round" stroke-linejoin="round"/>
</svg>
